<svg id="Layer_1" data-name="Layer 1" xmlns="http://www.w3.org/2000/svg" viewBox="0 0 1657.97 365.31"><defs><style>.cls-1{fill:#ecbe5f;}.cls-2{fill:#efca7b;}.cls-3{fill:#f4ddab;}.cls-4{fill:#f1d18c;}.cls-5,.cls-6,.cls-8{fill:#25305d;}.cls-6,.cls-7{font-size:135px;}.cls-6,.cls-7,.cls-8{font-family:Shlomo;}.cls-7{fill:#fff;}.cls-8{font-size:59px;letter-spacing:0.14em;}</style></defs><path class="cls-1" d="M280.24,474.28c-.25-1.53-1.79-1.81-3.18-1.52-.78.16-1.54.44-2.32.67-.17.08-.32.11-.31-.16a27.31,27.31,0,0,1,3.5-2.14,44.56,44.56,0,0,1,7.52-3.56,19.54,19.54,0,0,1,3.18-.82,7.72,7.72,0,0,1,1.86,0c1.95.71,2.66,2.07,2.26,4.17a29.28,29.28,0,0,1-3,7.89,102.63,102.63,0,0,1-6.35,10.44c-3.33,4.93-6.88,9.7-10.59,14.35-2.06,2.58-4.1,5.19-6.21,7.74-2.25,2.72-4.55,5.39-6.86,8.06q-4,4.62-8.08,9.2c-1.44,1.62-2.89,3.23-4.37,4.81-3.5,3.74-7,7.49-10.55,11.19s-7,7.1-10.43,10.71-6.93,6.84-10.38,10.27c-2.91,2.91-5.94,5.71-8.94,8.52-2.4,2.26-4.81,4.51-7.27,6.7-3.18,2.82-6.31,5.7-9.56,8.45-2.57,2.17-5.06,4.42-7.64,6.58-2.76,2.31-5.59,4.54-8.37,6.82-3.16,2.58-6.4,5.06-9.69,7.47C158,614.9,151.35,619.56,144,623a18.67,18.67,0,0,1-6,1.92c-1.71.19-3-.14-3.62-1.39a4.5,4.5,0,0,1-.25-2.87,23.1,23.1,0,0,1,2.16-6.24,89.78,89.78,0,0,1,4.55-8.13c0-.06.1-.09.16-.14a.26.26,0,0,1,0,.32,19.05,19.05,0,0,0-1,3.57c-.12,1.15.52,2.43,1.67,2.35a1.35,1.35,0,0,0,.91,0,10.64,10.64,0,0,0,4-1.23,57.94,57.94,0,0,0,8-4.58c2.57-1.7,5.15-3.4,7.59-5.26,2.66-2,5.36-4,7.94-6.15,2.1-1.73,4.27-3.4,6.34-5.18s4.39-3.71,6.59-5.56a1.91,1.91,0,0,0,.07-.92q0-54.75,0-109.51c0-.22,0-.44,0-.65s.11-.5.46-.46h10.27a1.59,1.59,0,0,1,.78.07V574.06c.42-.33.82-.58,1.16-.89,1.68-1.57,3.32-3.19,5-4.74,1.86-1.69,3.7-3.41,5.48-5.2.25-.25.67-.32.79-.7a.69.69,0,0,0,.07-.42V551.77a.76.76,0,0,0-.06-.42c0-.24,0-.48,0-.72V473.76c0-.24,0-.48,0-.72s.3-.12.45-.12h10.65c.16,0,.34-.05.47.1s0,.53,0,.8V551c.27.06.34-.12.45-.23,2.24-2.23,4.53-4.41,6.69-6.7,1.56-1.64,3.16-3.24,4.73-4.86.54-.57,1-1.21,1.61-1.74a1.64,1.64,0,0,0,.07-.85q0-31.32,0-62.65a5.56,5.56,0,0,0,0-.58c0-.35.13-.46.47-.46.69,0,1.39,0,2.09,0H243a1.3,1.3,0,0,1,.78.08q0,6.76,0,13.53v38.32a2.8,2.8,0,0,0,1-.88c1.48-1.75,3.08-3.4,4.57-5.14,2-2.36,4.11-4.65,6.07-7.05,1.82-2.24,3.76-4.38,5.58-6.62s3.53-4.49,5.3-6.72c3.17-4,6.12-8.15,8.9-12.41a45.4,45.4,0,0,0,4.23-7.82,9,9,0,0,0,.81-3A1.42,1.42,0,0,0,280.24,474.28Z" transform="translate(-134.03 -365)"/><path class="cls-1" d="M269.78,426H158.11c-1.18,0-1,.14-1-1.05,0-2.58,0-5.16,0-7.73.24-.18.52-.09.77-.09H269.07c.81,0,.81,0,.81.82v7.38C269.88,425.52,270,425.77,269.78,426Z" transform="translate(-134.03 -365)"/><path class="cls-1" d="M168,435.53l.94,0h89.2c1.15,0,1-.14,1,1v7.8a1.39,1.39,0,0,1-.78.08H168.74c-1,0-.88.1-.88-.89,0-2.43,0-4.87,0-7.3C167.86,436,167.78,435.75,168,435.53Z" transform="translate(-134.03 -365)"/><path class="cls-1" d="M247.78,463.73h-.94q-33.42,0-66.85,0c-.73,0-.93-.16-.92-.9.05-2.63,0-5.26,0-7.88.22-.21.5-.1.76-.1h67.24c.8,0,.8,0,.8.83,0,2.45,0,4.91,0,7.37C247.88,463.27,248,463.52,247.78,463.73Z" transform="translate(-134.03 -365)"/><path class="cls-2" d="M274.43,473.27a.34.34,0,0,0,.31.16l-.72.3c-.15,0-.19,0-.15-.16S274.18,473.24,274.43,473.27Z" transform="translate(-134.03 -365)"/><path class="cls-3" d="M273.87,473.57l.15.16a.72.72,0,0,1-.7.22Z" transform="translate(-134.03 -365)"/><path class="cls-4" d="M141,606.5v-.32c0-.1,0-.26.17-.23s.1.13,0,.21S141.09,606.38,141,606.5Z" transform="translate(-134.03 -365)"/><rect class="cls-5" x="863.97" width="794" height="264"/><text class="cls-6" transform="translate(209.78 175.24)">MARCELO</text><text class="cls-7" transform="translate(894.78 175.24)">ANDREOLLI</text><text class="cls-8" transform="translate(868.78 341.48)">Advocacia</text></svg>